<svg fill="#000000" xmlns="http://www.w3.org/2000/svg"  viewBox="0 0 64 64" width="36px" height="36px"><path d="M22 27c-3.309 0-6 3.14-6 7s2.691 7 6 7 6-3.14 6-7S25.309 27 22 27zM22 39c-2.206 0-4-2.243-4-5s1.794-5 4-5 4 2.243 4 5S24.206 39 22 39zM42 27c-3.309 0-6 3.14-6 7s2.691 7 6 7 6-3.14 6-7S45.309 27 42 27zM42 39c-2.206 0-4-2.243-4-5s1.794-5 4-5 4 2.243 4 5S44.206 39 42 39z"/><path d="M63.331,43.164c-1.122-10.41-3.57-20.282-6.895-27.798c-0.436-0.986-1.195-1.809-2.137-2.317c-3.782-2.043-7.892-3.547-12.214-4.471c-1.601-0.345-3.166,0.626-3.561,2.206l-0.433,1.733C36.265,12.205,34.237,12,32,12c-2.237,0-4.265,0.205-6.09,0.515l-0.433-1.733c-0.395-1.58-1.961-2.55-3.561-2.206c-4.323,0.924-8.432,2.428-12.214,4.471C8.759,13.557,8,14.38,7.564,15.366C4.24,22.881,1.791,32.753,0.669,43.164c-0.177,1.643,0.481,3.267,1.76,4.345c3.836,3.233,8.253,5.784,13.128,7.581c0.349,0.129,0.707,0.19,1.059,0.19c1.113,0,2.169-0.614,2.69-1.656l2.37-4.74C25.026,49.621,28.474,50,32,50s6.974-0.379,10.324-1.116l2.37,4.74c0.521,1.042,1.577,1.656,2.69,1.656c0.352,0,0.71-0.062,1.059-0.19c4.875-1.798,9.292-4.349,13.128-7.582C62.849,46.43,63.507,44.806,63.331,43.164z M60.281,45.979c-3.658,3.083-7.875,5.517-12.532,7.234c-0.493,0.181-1.038-0.025-1.267-0.484l-2.162-4.325c2.424-0.647,4.791-1.488,7.091-2.525c0.503-0.227,0.728-0.819,0.5-1.323s-0.821-0.726-1.323-0.5C44.783,46.673,38.529,48,32,48s-12.783-1.327-18.589-3.944c-0.505-0.226-1.096-0.003-1.323,0.5s-0.003,1.096,0.5,1.323c2.3,1.037,4.667,1.878,7.091,2.525l-2.162,4.325c-0.229,0.458-0.775,0.668-1.267,0.484c-4.657-1.717-8.874-4.151-12.532-7.234c-0.77-0.648-1.166-1.621-1.061-2.602c1.1-10.21,3.492-19.871,6.735-27.203c0.257-0.582,0.704-1.067,1.258-1.366c3.615-1.953,7.545-3.391,11.682-4.275c0.543-0.119,1.071,0.207,1.203,0.735l0.409,1.635c-5.287,1.219-8.332,3.256-8.51,3.378c-0.455,0.312-0.571,0.932-0.261,1.388c0.194,0.284,0.508,0.437,0.827,0.436c0.194,0,0.39-0.056,0.562-0.173C16.621,17.894,22.463,14,32,14s15.377,3.893,15.435,3.932c0.456,0.31,1.078,0.192,1.389-0.263c0.311-0.456,0.194-1.077-0.261-1.388c-0.178-0.122-3.222-2.158-8.508-3.377l0.409-1.635c0.132-0.528,0.661-0.854,1.203-0.735c4.137,0.884,8.067,2.322,11.682,4.275c0.554,0.299,1.001,0.784,1.258,1.366c3.243,7.333,5.635,16.993,6.735,27.203C61.447,44.358,61.051,45.331,60.281,45.979z"/><path d="M34.666 52.024c-3.823.268-7.734-.049-11.433-.938-.533-.127-1.077.201-1.206.738-.129.537.202 1.077.738 1.206 3 .721 6.107 1.087 9.234 1.087.935 0 1.879-.033 2.807-.098.551-.039.966-.517.927-1.068C35.695 52.401 35.223 51.989 34.666 52.024zM40.767 51.086c-.84.202-1.693.375-2.534.516-.544.091-.913.606-.821 1.151.082.489.505.835.985.835.055 0 .11-.004.166-.014.886-.148 1.785-.331 2.669-.543.537-.129.868-.669.74-1.206C41.844 51.289 41.304 50.96 40.767 51.086zM32 16.417c-.552 0-1 .448-1 1v1.759c0 .552.448 1 1 1s1-.448 1-1v-1.759C33 16.864 32.552 16.417 32 16.417zM36.755 20.609c.079.019.158.028.236.028.451 0 .86-.307.971-.765l.416-1.721c.129-.537-.2-1.077-.737-1.207-.531-.127-1.077.2-1.207.737l-.416 1.721C35.888 19.938 36.218 20.479 36.755 20.609zM41.31 21.892C41.455 21.965 41.609 22 41.761 22c.365 0 .717-.2.893-.548l.813-1.607c.25-.493.052-1.094-.44-1.344-.494-.249-1.094-.052-1.344.44l-.813 1.607C40.62 21.041 40.817 21.643 41.31 21.892zM26.038 19.872c.111.458.52.765.971.765.078 0 .157-.009.236-.028.537-.13.867-.67.737-1.207l-.416-1.721c-.13-.537-.672-.866-1.207-.737-.537.13-.867.67-.737 1.207L26.038 19.872zM21.346 21.452C21.522 21.8 21.874 22 22.239 22c.152 0 .306-.035.451-.108.493-.25.69-.851.44-1.344l-.813-1.607c-.25-.493-.85-.689-1.344-.44-.493.25-.69.851-.44 1.344L21.346 21.452z"/></svg>