<svg width="719" height="602" viewBox="0 0 719 602" fill="none" xmlns="http://www.w3.org/2000/svg">
<g clip-path="url(#clip0_11_2)">
<path d="M545.364 587.788L532.974 587.787L527.079 539.998L545.366 539.999L545.364 587.788Z" fill="#A0616A"/>
<path d="M545.034 583.739L531.814 578.369L531.424 578.209L524.124 583.739C520.118 583.738 516.266 585.285 513.373 588.055C510.479 590.826 508.767 594.607 508.594 598.609C508.574 598.829 508.574 599.059 508.574 599.289V599.799H548.524V583.739H545.034Z" fill="#2F2E41"/>
<path d="M516.348 576.258L504.66 580.37L483.238 537.245L500.488 531.177L516.348 576.258Z" fill="#A0616A"/>
<path d="M514.693 572.548L500.44 571.87L500.019 571.849L494.968 579.488C491.189 580.817 488.069 583.554 486.259 587.128C484.449 590.702 484.089 594.837 485.254 598.67C485.308 598.884 485.385 599.101 485.461 599.318L485.63 599.799L523.316 586.539L517.985 571.39L514.693 572.548Z" fill="#2F2E41"/>
<path d="M549.742 381.73C561.077 381.29 547.036 471.62 547.036 471.62C547.036 471.62 551.143 550.925 550.272 555.087C549.402 559.249 550.163 570.473 550.163 570.473C547.942 566.431 525.03 569.482 525.03 569.482L521.914 489.106L506 424.706L483.938 467.874L505.084 534.135C505.084 534.135 513.647 542.059 512.736 545.19C511.826 548.322 489.395 555.383 485.274 555.543C481.152 555.703 483.013 550.471 482.813 545.319C482.613 540.166 463.217 492.414 456.395 476.166C449.573 459.919 454.877 437.009 458.359 420.362C461.842 403.714 480.163 372.473 480.163 372.473C502.904 346.823 538.407 382.169 549.742 381.73Z" fill="#2F2E41"/>
<path d="M411.605 308.732C412.226 309.918 413.099 310.954 414.163 311.766C415.228 312.578 416.458 313.147 417.766 313.433C419.074 313.718 420.429 313.713 421.735 313.419C423.041 313.124 424.266 312.547 425.325 311.727L452.583 329.511L452.5 312.598L426.628 298.303C425.134 296.616 423.072 295.535 420.834 295.266C418.595 294.998 416.336 295.559 414.485 296.844C412.633 298.13 411.317 300.05 410.786 302.241C410.255 304.432 410.547 306.741 411.605 308.732V308.732Z" fill="#A0616A"/>
<path d="M543.855 396.21C515.745 396.211 500.255 390.584 492.029 385.56C481.97 379.416 480.249 372.938 480.18 372.665L480.16 372.586L481.139 360.266L481.568 359.307C483.541 354.891 483.803 349.899 482.302 345.3L482.271 345.206L482.279 345.107L488.852 259.862L512.112 252.243L518.878 245.444L549.006 245.007L553.203 253.518L576.954 262.459L565.286 331.916L559.692 341.557L561.943 352.06L561.927 352.155L554.589 395.955L554.185 395.972C550.566 396.134 547.123 396.214 543.855 396.21Z" fill="#3F3D56"/>
<path d="M471.133 343.029L460.105 336.491L459.414 335.493C458.01 333.473 456.153 331.81 453.99 330.638C451.827 329.466 449.419 328.818 446.96 328.745L446.832 328.741L431.643 319.811L437.939 301.368L461.749 308.402L478.349 267.157C479.261 264.892 480.783 262.924 482.746 261.472C484.709 260.021 487.037 259.142 489.47 258.934C491.902 258.726 494.345 259.197 496.526 260.295C498.708 261.392 500.542 263.073 501.824 265.151C503.139 267.322 503.82 269.818 503.792 272.356V299.343L503.692 299.477L471.133 343.029Z" fill="#3F3D56"/>
<path d="M544.86 380.348C545.096 379.03 545.618 377.779 546.389 376.685C547.16 375.59 548.162 374.678 549.324 374.013C550.486 373.348 551.78 372.945 553.114 372.834C554.448 372.722 555.791 372.905 557.047 373.369L577.703 348.217L582.705 364.373L562.323 385.781C561.404 387.839 559.762 389.489 557.708 390.418C555.654 391.347 553.331 391.49 551.178 390.82C549.026 390.151 547.194 388.715 546.029 386.785C544.865 384.854 544.449 382.564 544.86 380.348V380.348Z" fill="#A0616A"/>
<path d="M575.744 377.169L562.028 363.452L570.76 342.177L583.413 324.899C569.929 318.334 559.808 302.784 552.474 289.911L552.391 289.766L554.218 275.462C554.645 272.117 555.985 268.953 558.091 266.319C559.923 264.028 562.276 262.209 564.954 261.015C567.633 259.82 570.559 259.283 573.487 259.451C576.415 259.618 579.26 260.484 581.785 261.976C584.31 263.469 586.441 265.544 588 268.028L612.592 322.697L612.315 323.11L592.534 356.829L587.136 360.33L575.744 377.169Z" fill="#3F3D56"/>
<path d="M555.573 216.333C554.669 222.924 551.185 228.887 545.886 232.912C540.588 236.936 533.909 238.693 527.316 237.795C520.723 236.898 514.756 233.421 510.726 228.127C506.696 222.833 504.932 216.155 505.822 209.562L505.871 209.205C506.911 202.7 510.467 196.864 515.771 192.956C521.075 189.049 527.703 187.383 534.224 188.318C540.746 189.253 546.638 192.715 550.631 197.955C554.623 203.196 556.395 209.796 555.565 216.332L555.573 216.333Z" fill="#A0616A"/>
<path d="M549.184 229.263C550.473 226.645 551.797 223.833 551.435 220.937C551.073 218.04 548.232 215.272 545.443 216.133C543.775 216.647 542.514 218.294 540.771 218.379C538.372 218.495 536.997 215.749 536.25 213.466L533.209 204.17C530.289 206.446 526.902 208.049 523.291 208.865C519.68 209.681 515.933 209.69 512.318 208.891C509.495 208.245 506.642 206.987 504.986 204.611C503.33 202.234 503.34 198.549 505.611 196.752C506.725 195.871 508.208 195.536 509.272 194.596C509.932 194.013 510.388 193.233 510.57 192.371C510.752 191.509 510.652 190.611 510.285 189.811C509.918 189.01 509.302 188.349 508.53 187.925C507.758 187.501 506.869 187.337 505.996 187.458L513.653 186.501L511.372 182.375C512.239 182.965 513.22 183.367 514.252 183.557C515.284 183.746 516.344 183.718 517.364 183.474C519.424 183.103 521.364 182.255 523.379 181.689C528.264 180.442 533.423 180.823 538.071 182.775C542.72 184.727 546.604 188.143 549.134 192.504C551.018 191.875 553.049 191.833 554.957 192.384C556.866 192.935 558.562 194.053 559.821 195.59C561.87 198.191 562.428 201.663 562.507 204.974C562.656 211.503 561.233 217.971 558.357 223.834C557.532 225.696 556.347 227.377 554.87 228.78C554.127 229.475 553.24 230 552.272 230.316C551.305 230.633 550.28 230.733 549.269 230.612" fill="#2F2E41"/>
<path d="M142.373 203.433C142.783 209.28 144.505 214.96 147.413 220.049C153.54 230.81 164.048 238.601 175.365 243.232C189.504 249.018 205.265 249.196 220.27 247.906C234.206 246.708 248.001 243.93 261.989 243.358C272.807 243.012 283.635 243.27 294.424 244.131C315.356 245.617 336.201 248.374 356.911 251.715C362.52 252.609 368.117 253.57 373.702 254.597C374.23 254.643 374.752 254.74 375.262 254.887C375.363 254.928 375.526 254.896 375.619 254.954C375.788 255.06 374.937 254.685 375.453 255.111C376.171 255.865 376.812 256.689 377.365 257.572L385.014 267.415C387.207 270.238 389.243 273.668 392.078 275.892C394.077 277.437 396.488 278.354 399.008 278.53C401.528 278.706 404.043 278.131 406.237 276.879C408.529 275.431 410.356 273.355 411.502 270.898C413.262 267.671 415.361 264.642 417.764 261.861C426.863 251.245 439.511 244.715 450.089 235.783C455.212 231.634 459.585 226.635 463.017 221.005C465.944 215.911 467.764 210.256 468.358 204.41C469.625 192.539 465.982 180.433 459.855 170.334C453.191 159.484 443.617 150.721 432.221 145.04C419.419 138.518 405.253 135.341 391.053 133.758C375.977 132.077 360.725 132.082 345.575 132.252C328.572 132.441 311.601 133.189 294.66 134.495C277.696 135.808 260.799 137.674 243.969 140.094C227.819 142.416 211.473 144.836 195.665 148.944C181.7 152.574 167.774 158.247 157.346 168.525C148.074 177.664 141.625 190.171 142.373 203.433Z" fill="#6C63FF"/>
<path d="M220.434 207.21C219.743 207.178 219.067 207.005 218.447 206.699C217.827 206.394 217.277 205.964 216.831 205.435C216.386 204.907 216.054 204.292 215.858 203.63C215.662 202.967 215.605 202.271 215.691 201.585L216.05 198.76C216.118 198.219 216.054 197.668 215.863 197.157C215.672 196.645 215.359 196.188 214.952 195.823L212.83 193.927C212.135 193.307 211.628 192.504 211.366 191.61C211.103 190.716 211.096 189.766 211.345 188.869C211.595 187.971 212.09 187.161 212.776 186.53C213.461 185.899 214.31 185.473 215.225 185.299L218.022 184.768C218.559 184.666 219.062 184.435 219.49 184.096C219.917 183.756 220.255 183.318 220.476 182.819L221.624 180.211C222 179.359 222.606 178.629 223.376 178.103C224.145 177.578 225.046 177.278 225.976 177.237C226.907 177.197 227.831 177.418 228.642 177.875C229.454 178.332 230.122 179.007 230.57 179.823L231.939 182.319C232.201 182.799 232.577 183.207 233.032 183.509C233.488 183.81 234.01 183.997 234.553 184.052L237.385 184.338C238.312 184.432 239.195 184.783 239.932 185.352C240.67 185.921 241.234 186.685 241.56 187.558C241.886 188.431 241.961 189.378 241.777 190.291C241.593 191.204 241.158 192.048 240.519 192.727L238.569 194.8C238.194 195.197 237.922 195.68 237.776 196.206C237.63 196.732 237.615 197.285 237.73 197.819L238.332 200.603C238.529 201.514 238.467 202.461 238.154 203.338C237.841 204.215 237.288 204.987 236.559 205.567C235.83 206.147 234.953 206.511 234.028 206.618C233.103 206.726 232.166 206.572 231.323 206.175L228.748 204.962C228.255 204.728 227.711 204.618 227.165 204.641C226.62 204.665 226.088 204.821 225.616 205.096L223.155 206.529C222.332 207.011 221.387 207.247 220.434 207.21V207.21Z" fill="white"/>
<path d="M260.529 206.045C259.259 205.986 258.057 205.45 257.166 204.543C256.627 203.973 256.225 203.287 255.99 202.538C255.756 201.789 255.695 200.997 255.812 200.221L256.141 197.629C256.211 197.077 256.146 196.516 255.951 195.995C255.756 195.474 255.438 195.008 255.023 194.637L253.055 192.878C252.474 192.383 252.012 191.764 251.7 191.067C251.389 190.37 251.237 189.613 251.256 188.85C251.299 187.72 251.724 186.637 252.463 185.781C253.201 184.924 254.209 184.344 255.321 184.134L258.085 183.609C258.632 183.505 259.145 183.27 259.581 182.924C260.016 182.577 260.361 182.13 260.585 181.621L261.616 179.281C261.984 178.393 262.59 177.624 263.368 177.058C264.145 176.493 265.063 176.152 266.022 176.075C266.961 176.022 267.896 176.236 268.718 176.694C269.54 177.151 270.216 177.833 270.666 178.659L272.018 181.126C272.286 181.614 272.669 182.03 273.133 182.337C273.597 182.645 274.13 182.835 274.684 182.891L277.308 183.156C278.07 183.216 278.808 183.444 279.47 183.826C280.131 184.207 280.7 184.731 281.133 185.36C281.762 186.299 282.053 187.425 281.959 188.551C281.864 189.678 281.391 190.74 280.615 191.562L278.687 193.611C278.306 194.016 278.029 194.508 277.88 195.043C277.732 195.579 277.715 196.143 277.833 196.686L278.388 199.257C278.566 199.999 278.577 200.771 278.421 201.518C278.264 202.265 277.944 202.968 277.482 203.576C276.786 204.469 275.805 205.098 274.703 205.359C273.6 205.619 272.442 205.497 271.419 205.01L268.87 203.81C268.367 203.573 267.815 203.461 267.259 203.486C266.704 203.51 266.163 203.669 265.683 203.948L263.251 205.364C262.427 205.847 261.483 206.083 260.529 206.045V206.045Z" fill="white"/>
<path d="M300.728 205.875C300.038 205.844 299.361 205.671 298.741 205.365C298.121 205.06 297.571 204.63 297.126 204.101C296.68 203.573 296.349 202.958 296.153 202.295C295.957 201.633 295.9 200.937 295.986 200.251L296.344 197.426C296.413 196.884 296.349 196.334 296.158 195.822C295.966 195.311 295.654 194.853 295.247 194.489L293.125 192.593C292.43 191.973 291.923 191.17 291.66 190.276C291.398 189.382 291.391 188.432 291.64 187.534C291.889 186.637 292.385 185.827 293.07 185.196C293.756 184.565 294.605 184.139 295.52 183.965L298.317 183.433C298.853 183.332 299.357 183.101 299.784 182.762C300.212 182.422 300.55 181.984 300.77 181.484L301.918 178.877C302.294 178.025 302.901 177.294 303.67 176.769C304.44 176.243 305.34 175.943 306.271 175.903C307.202 175.863 308.125 176.084 308.937 176.541C309.749 176.997 310.417 177.672 310.865 178.489L312.234 180.985C312.496 181.464 312.871 181.872 313.327 182.174C313.782 182.476 314.304 182.663 314.848 182.718L317.68 183.004C318.607 183.098 319.489 183.449 320.227 184.018C320.965 184.587 321.528 185.351 321.854 186.224C322.181 187.097 322.256 188.043 322.072 188.957C321.888 189.87 321.452 190.714 320.814 191.392L318.864 193.466C318.489 193.863 318.217 194.346 318.071 194.872C317.925 195.398 317.909 195.951 318.025 196.485L318.627 199.269C318.824 200.179 318.762 201.127 318.449 202.004C318.135 202.881 317.583 203.653 316.854 204.233C316.125 204.812 315.248 205.177 314.323 205.284C313.398 205.391 312.461 205.238 311.618 204.841L309.043 203.627C308.549 203.393 308.006 203.283 307.46 203.307C306.914 203.33 306.382 203.487 305.911 203.762L303.45 205.195C302.626 205.677 301.682 205.913 300.728 205.875V205.875Z" fill="white"/>
<path opacity="0.2" d="M339.829 204.814C339.139 204.783 338.462 204.61 337.842 204.304C337.222 203.999 336.672 203.569 336.227 203.04C335.781 202.512 335.45 201.897 335.254 201.234C335.057 200.572 335.001 199.876 335.086 199.19L335.445 196.365C335.514 195.823 335.45 195.273 335.258 194.761C335.067 194.25 334.755 193.792 334.348 193.428L332.226 191.532C331.531 190.911 331.024 190.109 330.761 189.215C330.499 188.321 330.492 187.371 330.741 186.473C330.99 185.576 331.486 184.766 332.171 184.135C332.857 183.504 333.705 183.077 334.621 182.904L337.418 182.372C337.954 182.271 338.458 182.04 338.885 181.701C339.312 181.361 339.651 180.923 339.871 180.423L341.019 177.816C341.395 176.964 342.002 176.233 342.771 175.708C343.54 175.182 344.441 174.882 345.372 174.842C346.303 174.802 347.226 175.023 348.038 175.48C348.85 175.936 349.517 176.611 349.966 177.428L351.334 179.924C351.597 180.403 351.972 180.811 352.428 181.113C352.883 181.415 353.405 181.602 353.949 181.657L356.781 181.943C357.708 182.037 358.59 182.388 359.328 182.957C360.065 183.526 360.629 184.29 360.955 185.163C361.281 186.036 361.357 186.982 361.173 187.896C360.989 188.809 360.553 189.653 359.915 190.331L357.964 192.405C357.59 192.802 357.318 193.285 357.172 193.811C357.026 194.337 357.01 194.89 357.126 195.424L357.728 198.208C357.924 199.118 357.863 200.066 357.55 200.943C357.236 201.82 356.684 202.592 355.955 203.172C355.226 203.751 354.349 204.116 353.424 204.223C352.498 204.33 351.561 204.177 350.719 203.78L348.144 202.566C347.65 202.332 347.107 202.222 346.561 202.246C346.015 202.269 345.483 202.426 345.011 202.701L342.551 204.134C341.727 204.616 340.783 204.852 339.829 204.814V204.814Z" fill="black"/>
<path opacity="0.2" d="M378.93 203.754C378.24 203.722 377.563 203.549 376.943 203.243C376.323 202.938 375.773 202.508 375.328 201.979C374.882 201.451 374.551 200.836 374.354 200.174C374.158 199.511 374.101 198.815 374.187 198.129L374.546 195.304C374.615 194.763 374.55 194.212 374.359 193.701C374.168 193.189 373.855 192.731 373.448 192.367L371.327 190.471C370.632 189.851 370.124 189.048 369.862 188.154C369.6 187.26 369.593 186.31 369.842 185.413C370.091 184.515 370.586 183.705 371.272 183.074C371.958 182.443 372.806 182.017 373.722 181.843L376.519 181.312C377.055 181.21 377.559 180.979 377.986 180.64C378.413 180.3 378.752 179.862 378.972 179.363L380.12 176.755C380.496 175.903 381.103 175.173 381.872 174.647C382.641 174.122 383.542 173.822 384.473 173.781C385.403 173.741 386.327 173.962 387.139 174.419C387.95 174.876 388.618 175.551 389.067 176.367L390.435 178.863C390.698 179.343 391.073 179.751 391.528 180.053C391.984 180.354 392.506 180.541 393.05 180.596L395.882 180.882C396.809 180.976 397.691 181.327 398.429 181.896C399.166 182.465 399.73 183.229 400.056 184.102C400.382 184.975 400.458 185.921 400.274 186.835C400.09 187.748 399.654 188.592 399.015 189.271L397.065 191.344C396.691 191.741 396.419 192.224 396.273 192.75C396.127 193.276 396.111 193.829 396.227 194.363L396.828 197.147C397.025 198.058 396.964 199.005 396.65 199.882C396.337 200.759 395.785 201.531 395.055 202.111C394.326 202.691 393.45 203.055 392.524 203.162C391.599 203.27 390.662 203.116 389.82 202.719L387.244 201.506C386.751 201.272 386.208 201.162 385.662 201.185C385.116 201.209 384.584 201.365 384.112 201.64L381.652 203.073C380.828 203.555 379.884 203.791 378.93 203.754Z" fill="black"/>
<path d="M628.042 537.37L629.186 511.65C641.11 505.276 654.41 501.91 667.93 501.842C649.322 517.056 651.647 546.383 639.031 566.842C635.048 573.193 629.686 578.566 623.343 582.563C617.001 586.559 609.84 589.078 602.392 589.931L586.82 599.466C584.683 587.553 585.154 575.32 588.201 563.607C591.247 551.895 596.797 540.982 604.467 531.62C608.822 526.411 613.815 521.771 619.33 517.81C623.059 527.644 628.042 537.37 628.042 537.37Z" fill="#F2F2F2"/>
<path d="M717.318 601.718H299.936C299.62 601.718 299.318 601.593 299.094 601.37C298.871 601.146 298.746 600.843 298.746 600.528C298.746 600.212 298.871 599.909 299.094 599.686C299.318 599.462 299.62 599.337 299.936 599.337H717.318C717.634 599.337 717.937 599.462 718.16 599.686C718.383 599.909 718.509 600.212 718.509 600.528C718.509 600.843 718.383 601.146 718.16 601.37C717.937 601.593 717.634 601.718 717.318 601.718V601.718Z" fill="#CACACA"/>
</g>
<defs>
<clipPath id="clip0_11_2">
<rect width="718.509" height="601.718" fill="white"/>
</clipPath>
</defs>
</svg>
