<svg width="89" height="101" viewBox="0 0 89 101" fill="none" xmlns="http://www.w3.org/2000/svg">
<path d="M88.8798 30.0079C88.8791 28.331 88.5204 26.8492 87.7952 25.5775C87.0827 24.3269 86.0158 23.2787 84.5847 22.45C72.7717 15.6385 60.9472 8.8479 49.1379 2.02949C45.9542 0.191481 42.8674 0.258488 39.7073 2.12288C35.0053 4.89587 11.4643 18.383 4.44933 22.4462C1.56038 24.1186 0.154622 26.678 0.153927 30.0048C0.149414 43.7031 0.153927 57.401 0.149414 71.0996C0.150108 72.7397 0.493477 74.1927 1.18681 75.4453C1.89959 76.7337 2.98142 77.8107 4.44551 78.6582C11.4608 82.7213 35.005 96.2075 39.7059 98.9811C42.8674 100.847 45.9542 100.913 49.139 99.0745C60.9485 92.2558 72.7737 85.4655 84.5885 78.654C86.0526 77.8069 87.1345 76.7292 87.8472 75.4419C88.5395 74.1892 88.8836 72.7362 88.8843 71.0958C88.8843 71.0958 88.8843 43.7065 88.8798 30.0079Z" fill="#5C8DBC"/>
<path d="M44.6526 50.4188L1.18677 75.4454C1.89954 76.7338 2.98138 77.8108 4.44547 78.6583C11.4607 82.7214 35.0049 96.2076 39.7059 98.9813C42.8674 100.847 45.9542 100.913 49.139 99.0747C60.9486 92.2559 72.7738 85.4656 84.5886 78.6541C86.0527 77.807 87.1345 76.7293 87.8473 75.442L44.6526 50.4188Z" fill="#1A4674"/>
<path d="M31.7786 57.8318C34.3078 62.2473 39.0626 65.2255 44.5169 65.2255C50.0049 65.2255 54.7867 62.2095 57.3031 57.7468L44.6526 50.4188L31.7786 57.8318Z" fill="#1A4674"/>
<path d="M88.8798 30.008C88.8791 28.3311 88.5204 26.8493 87.7951 25.5775L44.6526 50.4188L87.8472 75.442C88.5395 74.1894 88.8836 72.7364 88.8843 71.0959C88.8843 71.0959 88.8843 43.7066 88.8798 30.008Z" fill="#1B598E"/>
<path d="M86.5046 52.2074H83.1293V55.5835H79.7533V52.2074H76.3783V48.8324H79.7533V45.4571H83.1293V48.8324H86.5046V52.2074ZM74.1882 52.2074H70.8132V55.5835H67.4378V52.2074H64.0625V48.8324H67.4378V45.4571H70.8132V48.8324H74.1882V52.2074Z" fill="white"/>
<path d="M57.3031 57.7469C54.7867 62.2096 50.0049 65.2256 44.5169 65.2256C39.0626 65.2256 34.3078 62.2474 31.7786 57.8319C30.508 55.6163 29.8407 53.1062 29.8433 50.5521C29.8433 42.4484 36.4132 35.8789 44.5169 35.8789C49.9361 35.8789 54.6659 38.8199 57.2076 43.1903L70.0331 35.805C64.9353 27.0051 55.4179 21.0849 44.5169 21.0849C28.2421 21.0849 15.0493 34.278 15.0493 50.5521C15.0493 55.8911 16.4697 60.8979 18.9521 65.2166C24.037 74.0629 33.5815 80.0196 44.5169 80.0196C55.4724 80.0196 65.0318 74.039 70.1095 65.1666L57.3031 57.7469Z" fill="white"/>
</svg>
