<svg width="100" height="109" viewBox="0 0 100 109" fill="none" xmlns="http://www.w3.org/2000/svg">
<g filter="url(#filter0_d_101_8)">
<path d="M89.5371 50.018C89.5371 44.8776 85.3697 40.7101 80.2292 40.7101C79.8983 40.7101 79.5723 40.7278 79.2506 40.7618L92.035 3.05554H37.7057L50.4724 40.7289C50.284 40.717 50.0953 40.7109 49.9065 40.7105C44.7661 40.7105 40.5987 44.8772 40.5987 50.0183C40.5987 54.1734 43.3219 57.6914 47.0802 58.8883C45.0953 62.3266 42.5974 65.4236 39.7614 68.0994C35.905 71.7372 31.4917 74.4959 26.7183 76.1956C21.0351 73.276 18.3515 66.7832 20.7729 61.0904C21.0464 60.4473 21.3256 59.7957 21.5924 59.1469C25.7096 58.186 28.778 54.4951 28.778 50.085C28.778 44.9442 24.6105 40.7771 19.4697 40.7771C14.329 40.7771 10.1619 44.9442 10.1619 50.085C10.1619 53.2373 11.7301 56.0219 14.1277 57.7056C11.8239 62.9509 8.4374 68.4407 7.38224 74.8031C6.11769 82.428 7.37799 90.522 13.9729 95.093C29.3318 105.738 46.0037 88.4939 63.5821 84.1588C69.9527 82.5881 76.9458 82.8411 82.5585 79.5906C86.7735 77.1494 89.5524 73.1034 90.3407 68.5615C91.1202 64.0744 89.9843 59.6068 87.3723 55.9843C88.7736 54.3123 89.5402 52.1996 89.5371 50.018Z" fill="#99425B"/>
<path d="M88.1011 68.1724C87.4165 72.1159 84.981 75.5602 81.4194 77.6234C78.0991 79.5463 74.1205 80.1203 69.9077 80.7276C67.651 81.0528 65.3175 81.3898 63.0378 81.9518C57.0102 83.4381 51.1718 86.3382 45.5261 89.1426C34.227 94.755 24.4691 99.6013 15.2682 93.2243C8.52844 88.5534 8.83953 79.9109 9.6247 75.1751C10.3525 70.7873 12.32 66.7463 14.2223 62.8385C14.5464 62.1744 14.8679 61.509 15.1867 60.8423C16.1457 61.2257 17.1519 61.4781 18.1782 61.5928C16.2415 67.9843 19.2872 74.9338 25.6795 78.2176L26.5546 78.6672L27.4808 78.3374C32.5344 76.5375 37.1912 73.6498 41.3214 69.7527C43.9912 67.2338 46.2868 64.4471 48.1736 61.4695C48.7472 61.556 49.3264 61.5995 49.9065 61.5995C55.7736 61.5995 60.632 57.2134 61.3839 51.5486C63.7854 51.4607 66.3361 51.46 68.7515 51.5479C69.5027 57.2134 74.3618 61.5998 80.2289 61.5998C82.6822 61.5998 84.9576 60.831 86.8323 59.525C88.1337 62.1891 88.6194 65.1866 88.1011 68.1724ZM19.4701 43.0503C23.3491 43.0503 26.5047 46.2062 26.5047 50.0853C26.5047 51.4785 26.0958 52.7777 25.3939 53.8719C24.2246 55.6955 22.2369 56.9455 19.9534 57.1014C19.7936 57.1121 19.6323 57.1199 19.4701 57.1199C18.6055 57.1199 17.7775 56.9622 17.0118 56.6759C15.4698 56.0961 14.1785 54.9962 13.3606 53.5661C12.7533 52.5066 12.4342 51.3065 12.4351 50.0853C12.4351 46.2062 15.591 43.0503 19.4701 43.0503ZM42.8723 50.0183C42.8723 46.4939 45.4776 43.5676 48.8627 43.0617C49.2036 43.0103 49.5522 42.9837 49.9069 42.9837C52.1621 42.9837 54.17 44.052 55.4576 45.7074C55.7801 46.1201 56.0556 46.5675 56.2789 47.0414C56.7161 47.9728 56.9424 48.9893 56.9415 50.0183C56.9415 50.5806 56.8734 51.1273 56.7484 51.6517C56.0628 54.5217 53.6155 56.7156 50.6166 57.0175C50.3834 57.0409 50.1467 57.0529 49.9069 57.0529C48.5538 57.054 47.2294 56.6625 46.0944 55.9258C44.1577 54.6712 42.8723 52.4925 42.8723 50.0183ZM72.2327 41.6529C70.7018 43.1141 69.6002 44.9664 69.047 47.0091C66.3955 46.9114 63.7413 46.9114 61.0898 47.0091C60.4945 44.801 59.2608 42.853 57.6008 41.3734L64.8803 26.6544L72.2327 41.6529ZM40.8764 5.32952H88.8639L77.5297 38.7575C77.0421 38.8742 76.5626 39.0228 76.0944 39.2021L64.898 16.3619L53.6697 39.0657C53.1802 38.8977 52.68 38.7629 52.1724 38.6621L40.8764 5.32952ZM87.2635 50.0187C87.2635 50.7238 87.1582 51.4048 86.9644 52.0478C86.5046 53.5619 85.5497 54.8776 84.2528 55.7841C83.0742 56.6113 81.6689 57.0545 80.2289 57.0533C76.9809 57.0533 74.2409 54.8399 73.4352 51.8423C73.2752 51.2477 73.1942 50.6345 73.1943 50.0187C73.1943 49.0571 73.3885 48.1401 73.7392 47.3046C73.9202 46.8771 74.1431 46.4686 74.4046 46.0851C75.6706 44.2164 77.8068 42.9841 80.2289 42.9841C80.451 42.9841 80.67 42.9954 80.8872 43.016C84.4587 43.3487 87.2638 46.3614 87.2638 50.0187H87.2635ZM91.8104 50.0187C91.8104 44.3645 87.7365 39.6468 82.3707 38.6391L95.2062 0.782227H34.5349L47.3902 38.7156C42.2108 39.8682 38.3257 44.4967 38.3257 50.0183C38.3257 54.1645 40.5168 57.8062 43.8006 59.8527C42.2211 62.2061 40.3481 64.4206 38.2017 66.4458C34.7974 69.657 31.0052 72.0926 26.9167 73.6951C22.7985 71.1083 21.0578 66.2297 22.8655 61.98L23.0072 61.647L23.2729 61.022C27.7961 59.4442 31.0512 55.1392 31.0512 50.0853C31.0512 43.6991 25.8559 38.5038 19.4701 38.5038C13.0842 38.5038 7.8882 43.6991 7.8882 50.0853C7.8882 53.3085 9.21334 56.2274 11.3456 58.3292C10.9479 59.1718 10.5442 60.0115 10.1346 60.8483C8.18476 64.8525 5.97524 69.3909 5.13941 74.431C3.4798 84.4405 6.15701 92.442 12.6782 96.9613C16.6352 99.7037 20.6538 100.782 24.6977 100.782C32.3119 100.782 40.0147 96.9567 47.5485 93.2144C52.9742 90.5198 58.5848 87.7331 64.1266 86.3662C66.1888 85.8577 68.3104 85.5516 70.5568 85.2278C75.0116 84.585 79.6177 83.9207 83.698 81.5578C88.4277 78.8182 91.6651 74.2227 92.5807 68.9505C93.3666 64.4241 92.4209 59.8906 90.1143 56.0456C91.2257 54.2318 91.8128 52.1455 91.8104 50.0183V50.0187Z" fill="white"/>
</g>
<defs>
<filter id="filter0_d_101_8" x="0.659576" y="0.782227" width="98.5466" height="108" filterUnits="userSpaceOnUse" color-interpolation-filters="sRGB">
<feFlood flood-opacity="0" result="BackgroundImageFix"/>
<feColorMatrix in="SourceAlpha" type="matrix" values="0 0 0 0 0 0 0 0 0 0 0 0 0 0 0 0 0 0 127 0" result="hardAlpha"/>
<feOffset dy="4"/>
<feGaussianBlur stdDeviation="2"/>
<feComposite in2="hardAlpha" operator="out"/>
<feColorMatrix type="matrix" values="0 0 0 0 0 0 0 0 0 0 0 0 0 0 0 0 0 0 0.25 0"/>
<feBlend mode="normal" in2="BackgroundImageFix" result="effect1_dropShadow_101_8"/>
<feBlend mode="normal" in="SourceGraphic" in2="effect1_dropShadow_101_8" result="shape"/>
</filter>
</defs>
</svg>
