<svg width="109" height="109" viewBox="0 0 109 109" fill="none" xmlns="http://www.w3.org/2000/svg">
<g filter="url(#filter0_d_25_443)">
<path d="M4.38062 0.485107H104.381V100.485H4.38062V0.485107Z" fill="#017ACB"/>
<path d="M52.3963 37.5164H57.1932V45.7976H44.2244V82.6413L43.8807 82.7351C43.4119 82.8601 37.24 82.8601 35.9119 82.7195L34.8494 82.6257V45.7976H21.8806V37.5164L25.99 37.4695C28.24 37.4382 34.0213 37.4382 38.8338 37.4695C43.6463 37.5007 49.74 37.5164 52.3963 37.5164ZM89.0057 78.7351C87.0995 80.7507 85.0526 81.8757 81.6463 82.7976C80.162 83.2038 79.912 83.2195 76.5682 83.2039C73.2245 83.1882 72.9588 83.1882 71.3338 82.7663C67.1307 81.6882 63.7401 79.5789 61.4276 76.5945C60.7713 75.7507 59.6932 74.0007 59.6932 73.782C59.6932 73.7195 59.8494 73.5789 60.0526 73.4851C60.2557 73.3914 60.6776 73.1257 61.0213 72.9226C61.3651 72.7195 61.9901 72.3445 62.4119 72.1257C62.8338 71.907 64.0526 71.1882 65.1151 70.5476C66.1776 69.907 67.1463 69.3914 67.2557 69.3914C67.3651 69.3914 67.5682 69.6101 67.7244 69.8757C68.6619 71.4539 70.8494 73.4695 72.3963 74.157C73.3495 74.5632 75.4588 75.0164 76.4745 75.0164C77.412 75.0164 79.1307 74.6101 80.0526 74.1882C81.037 73.7351 81.537 73.282 82.1307 72.3757C82.537 71.7351 82.5838 71.5632 82.5682 70.3445C82.5682 69.2195 82.5057 68.907 82.1932 68.3914C81.3182 66.9539 80.1307 66.2039 75.3182 64.0789C70.3494 61.8757 68.1151 60.5632 66.3026 58.7976C64.9588 57.4851 64.6932 57.1257 63.8494 55.4851C62.7557 53.3757 62.6151 52.6882 62.5994 49.5476C62.5838 47.3445 62.6307 46.6257 62.8651 45.8757C63.1932 44.7507 64.2557 42.5789 64.7401 42.032C65.7401 40.8601 66.0994 40.5007 66.8026 39.9226C68.9276 38.1726 72.2401 37.0164 75.412 36.907C75.7713 36.907 76.9588 36.9695 78.0682 37.0476C81.2557 37.3132 83.4276 38.0945 85.5213 39.7664C87.0995 41.0164 89.4901 43.9539 89.2557 44.3445C89.0995 44.5789 82.8651 48.7351 82.4588 48.8601C82.2088 48.9382 82.037 48.8445 81.6932 48.4382C79.5682 45.8914 78.7088 45.3445 76.6463 45.2195C75.1776 45.1257 74.3963 45.2976 73.412 45.9539C72.3807 46.6414 71.8807 47.6882 71.8807 49.1414C71.8963 51.2664 72.7088 52.2664 75.7088 53.7507C77.6463 54.7039 79.3026 55.4851 79.4276 55.4851C79.6151 55.4851 83.6307 57.4851 84.6776 58.1101C89.5526 60.9695 91.537 63.907 92.0526 68.9695C92.4276 72.782 91.3495 76.2663 89.0057 78.7351Z" fill="white"/>
</g>
<defs>
<filter id="filter0_d_25_443" x="0.380615" y="0.485107" width="108" height="108" filterUnits="userSpaceOnUse" color-interpolation-filters="sRGB">
<feFlood flood-opacity="0" result="BackgroundImageFix"/>
<feColorMatrix in="SourceAlpha" type="matrix" values="0 0 0 0 0 0 0 0 0 0 0 0 0 0 0 0 0 0 127 0" result="hardAlpha"/>
<feOffset dy="4"/>
<feGaussianBlur stdDeviation="2"/>
<feComposite in2="hardAlpha" operator="out"/>
<feColorMatrix type="matrix" values="0 0 0 0 0 0 0 0 0 0 0 0 0 0 0 0 0 0 0.25 0"/>
<feBlend mode="normal" in2="BackgroundImageFix" result="effect1_dropShadow_25_443"/>
<feBlend mode="normal" in="SourceGraphic" in2="effect1_dropShadow_25_443" result="shape"/>
</filter>
</defs>
</svg>
